<?xml version="1.0" encoding="UTF-8"?>
<svg version="1.1" viewBox="0 0 1982 546.75" xmlns="http://www.w3.org/2000/svg"><defs><filter id="filter209" color-interpolation-filters="sRGB"><feBlend in2="BackgroundImage" mode="multiply" result="blend"/></filter><filter id="filter231" color-interpolation-filters="sRGB"><feBlend in2="SourceGraphic" result="blend"/></filter><clipPath id="clipPath391"><path d="m74.937 127.49v445.22h458.4v-445.22zm230.78 24.78c18.887-5e-3 37.635 2.7325 55.959 8.1649 24.432 7.2432 46.884 18.954 66.704 34.81 20.54 16.396 37.334 36.541 49.982 59.82 12.613 23.279 20.323 48.36 22.846 74.522 2.4506 25.261-1e-3 50.45-7.2443 74.882-7.2432 24.432-18.954 46.884-34.81 66.704-16.396 20.541-36.541 37.334-59.82 49.982-23.279 12.613-48.36 20.323-74.522 22.846-25.261 2.4505-50.45-1e-3 -74.882-7.2444-24.432-7.2432-46.884-18.954-66.704-34.81-20.54-16.36-37.334-36.503-49.982-59.782-1.3852-2.5608-2.6973-5.1476-3.964-7.7493l-0.81058-1.2812-0.39167-1.2297c-9.5616-20.351-15.523-41.895-17.68-64.261-2.4504-25.261 1e-3 -50.452 7.2443-74.92 7.2432-24.432 18.954-46.884 34.81-66.704 16.396-20.54 36.541-37.334 59.82-49.982 23.279-12.613 48.359-20.323 74.522-22.846 6.3153-0.61261 12.628-0.91889 18.923-0.92057zm0.0616 3.0228c-31.189-0.0441-62.811 7.4623-92.102 23.341-22.71 12.311-41.956 28.551-57.378 47.416 8.035 3.5744 10.769 4.5539 22.764 9.2985l7.1928-3.7029c14.007-7.2102 28.817-22.463 40.505-41.714 2.9193-4.8085 5.6108-8.5547 5.9801-8.3264 0.36932 0.2283 0.98294 2.1083 1.3637 4.1769 1.2561 6.821 10.639 30.541 17.199 43.476 6.759 13.327 19.591 33.298 26.044 40.536l3.7923 4.2559 7.0004-4.6269c15.721-10.392 32.913-16.769 49.144-18.223 18.507-1.657 34.792 1.1099 65.951 11.205 21.5 6.9658 30.788 9.3176 41.683 10.556 8.8581 1.0065 20.703 0.20103 27.713-1.8824 1.9214-0.57107 3.7059-1.0374 3.964-1.0374 1.302 0-10.174 10.594-14.956 13.805-5.4669 3.6718-5.484 3.696-2.5213 4.0327 1.64 0.18628 7.108 0.18628 12.153 0 8.383-0.30948 9.0943-0.19153 8.261 1.3637-1.471 2.7458-11.692 9.5773-17.776 11.882-11.56 4.3784-22.416 5.8589-51.058 6.9661-15.092 0.58339-30.941 1.6742-35.222 2.4216-7.491 1.3079-16.19 4.6513-20.304 7.8077-1.8505 1.4199-1.5705 1.6318 4.8124 3.6033 3.7274 1.1512 9.6456 2.6205 13.152 3.2666l6.3788 1.1748-2.0747 4.067c-1.1409 2.2364-3.2052 5.7732-4.5856 7.8592s-2.3305 3.9393-2.1126 4.122c0.21791 0.18261 2.6463 0.88173 5.3964 1.5526 7.4379 1.814 18.754 6.5517 26.604 11.136l6.949 4.0601 8.2234-1.6762c11.453-2.333 27.297-6.9703 35.816-10.484 3.9509-1.6292 7.3825-2.9609 7.6291-2.9609 0.78808 0-6.86 13.252-11.83 20.5-2.6402 3.85-7.1521 9.6428-10.03 12.871l-5.235 5.8669 2.6862 4.778c3.2374 5.759 3.3329 8.666 0.58055 17.628-4.389 14.294-10.486 26.297-19.349 38.087l-4.5788 6.0902-8.7318-4.3384c-13.038-6.4791-19.411-7.9318-34.734-7.9108-18.338 0.0251-19.372 0.33528-69.675 20.85-15.415 6.2865-29.219 10.269-38.826 11.201l-6.499 0.63204 3.9982-2.7274c5.5732-3.797 11.383-9.4928 13.183-12.926 1.4305-2.7278 1.4107-2.8503-0.33328-2.14-2.1581 0.8789-21.544 5.5511-35.617 8.584-26.443 5.6988-69.625 18.158-72.413 18.964 58.596 63.237 154.85 81.513 234.04 38.582 93.73-50.811 128.65-168.43 77.84-262.16-34.932-64.439-101.45-101.08-170.06-101.18zm-77.362 50.546-1.8859 4.2078c-4.306 9.619-15.908 21.236-28.696 28.73l-4.4209 2.59 12.366 12.115c6.8009 6.663 15.739 15.175 19.864 18.913l7.5019 6.7944-15.502-7.9073c-8.525-4.351-18.767-10.01-22.76-12.575-3.9931-2.5654-7.6129-4.6647-8.0448-4.6647s-0.88832 1.6851-1.0132 3.7476c-0.37232 6.118-4.055 19.107-7.5776 26.731l-3.2838 7.1173 12.091 4.7059c24.477 9.5274 32.074 12.579 31.457 12.637-0.34787 0.0329-9.9636-1.2903-21.369-2.9403-11.405-1.65-20.89-2.9987-21.08-2.9987s0.51741 2.0164 1.5732 4.4792c4.487 10.467 6.1548 26.953 3.9398 38.935-0.5874 3.1799-0.92296 5.9262-0.74534 6.104 0.17781 0.17779 3.8764-0.52459 8.2198-1.5595 10.046-2.3934 32.869-5.176 39.135-4.7712l4.7986 0.31258-9.9202 2.9128c-11.506 3.3813-29.243 10.007-31.798 11.875-1.596 1.1669-1.3043 1.5802 3.1328 4.4552 8.79 5.695 19.246 19.126 19.246 24.721 0 2.0465 0 2.0473 7.2925-1.9648 9.513-5.2288 24.842-11.217 37.208-14.54 6.05-1.6258 11.675-2.9508 12.5-2.9438s-3.3313 2.5921-9.2367 5.7467c-9.529 5.09-29.98 18.635-36.734 24.33-2.3968 2.0208-2.4091 2.1138-0.50844 3.1774 8.3109 4.651 17.775 18.943 19.085 28.819 0.35824 2.7009 1.0426 4.912 1.5216 4.912 0.47924 0 0.87249-0.40572 0.87249-0.89997 0-1.57 14.082-16.048 20.153-20.72 7.074-5.4436 19.533-11.804 26.346-13.448 2.7499-0.6637 5.391-1.5602 5.8704-1.9923 1.949-1.7566-16.298-8.9226-22.801-8.955-1.6878-9e-3 -3.6783-0.40336-4.4242-0.8759-0.86159-0.54599 2.3319-1.3114 8.7592-2.0988 20.095-2.461 40.591 3.6371 52.607 15.653 2.854 2.8544 3.5399 3.0384 13.499 3.617 22.644 1.315 41.661 7.9618 57.622 20.136l7.131 5.4375 2.961-4.1769c5.0668-7.153 10.317-16.756 13.919-25.457l3.4624-8.3607-1.8892-3.1808c-1.3034-2.1962-2.4812-3.0577-3.8025-2.7858-4.475 0.921-10.308 0.23778-14.461-1.69-4.9539-2.2989-11.009-6.9281-7.4539-5.6986 1.1001 0.38035 3.8009 0.89384 6.0009 1.1404l4.0018 0.44654-3.6479-2.0163c-5.2617-2.911-10.428-9.4174-11.81-14.87-0.65635-2.5895-1.5429-5.3792-1.9717-6.2001-1.0579-2.0252-14.893-7.5699-23.976-9.6111-7.759-1.7435-7.9386-1.7227-20.095 2.3667-0.82501 0.2775 0.68835-1.6464 3.3628-4.2731 4.8305-4.744 10.635-12.905 10.635-14.949 0-0.58709-3.8496-2.3728-8.5564-3.9708-8.515-2.891-27.222-11.614-32.941-15.361l-2.9988-1.9682-10.617 5.9734 1.484-3.5552c4.749-11.365 17.651-24.701 29.132-30.114 7.9659-3.7562 13.205-5.1597 22.499-6.0181l6.5025-0.59768-7.7529 4.0464c-4.2624 2.2268-7.7496 4.156-7.7492 4.2868 0 0.13102 14.963 0.21286 33.25 0.18204 30.574-0.0514 34.011-0.23241 42.704-2.2499 5.1991-1.2068 9.585-2.195 9.7485-2.195s0.2988-0.44958 0.2988-0.99958-1.0473-0.99958-2.3255-0.99958c-2.682 0-27.75-6.1776-48.265-11.895-20.948-5.8382-32.164-7.4608-47.269-6.8425-24.249 0.992-41.282 9.4699-62.513 31.121l-8.876 9.0477 3.0846 2.5762c1.6966 1.4164 5.0164 3.6038 7.375 4.8605l4.2868 2.2843-6.1899-0.47402c-6.997-0.5375-16.256-4.336-20.685-8.4844-3.6855-3.451-6.5853-9.7237-6.5607-14.193l0.0211-3.5002 5.7983 6.7841 5.3104-4.3418c2.9196-2.3891 5.4307-4.4103 5.5784-4.493 0.14773-0.082-3.05-5.0563-7.1036-11.05-13.958-20.64-26.732-44.753-31.65-59.748zm-82.79 34.583c-31.071 46.174-41.377 104.58-26.243 159.54 2.6892-0.0141 53.878 0.74034 57.532-0.64578l6.7599-2.5625-2.6553-4.6097c-1.4597-2.5346-5.0754-8.0931-8.0343-12.356-2.9588-4.2625-5.0844-7.7527-4.7265-7.7527 1.841 0 12.07 6.7661 16.893 11.174 3.0259 2.7651 5.4995 4.7231 5.4995 4.3487 0-0.37439-1.6159-3.1166-3.5895-6.0902-4.258-6.415-11.6-13.228-19.068-17.697-5.0062-2.9962-5.3575-3.4546-4.8123-6.2345 2.9599-15.094 3.332-30.686 0.9548-40.038-0.8331-3.2779-3.063-9.1317-4.9532-13.005l-3.4349-7.0417 5.3104-10.597c5.6156-11.203 9.1716-22.486 10.209-32.409l0.62522-6.0009-9.3706-3.1945zm131.59 81.629c12.009-0.0179 21.506 3.7551 40.467 16.079 11.875 7.7181 17.972 10.28 22.715 9.5424 1.7874-0.2779 3.2494-0.13894 3.2494 0.30914 0 1.7456-3.434 3.5164-7.8043 4.0258l-4.5753 0.53244 7.4402 5.125c8.1678 5.625 18.142 10.888 30.441 16.062v-4e-3c7.3387 3.0873 7.6284 3.3145 3.5004 2.7205-2.475-0.35614-7.8767-1.5228-12.002-2.59-10.265-2.656-44.865-16.486-42.999-17.189 0.82501-0.31039 2.8013-1.043 4.3899-1.6247 1.5888-0.58173 2.7112-1.2226 2.4974-1.4255-1.4029-1.332-34.218-20.577-34.539-20.256-0.69733 0.69701 3.5002 9.6011 6.7566 14.334 2.5429 3.6962 2.7812 4.4484 1.264 3.9708-13.381-4.2118-40.21-4.2687-58.041-0.12363-3.197 0.74314-5.9988 1.1632-6.2276 0.93431-0.80091-0.801 13.282-6.6134 20.805-8.5874 4.176-1.0957 12.097-2.2453 17.601-2.5522l10.009-0.55646-3.9916-12.737h-4.1048c-2.258 0-7.8041 0.49768-12.325 1.1061-4.5208 0.60844-8.4608 0.86525-8.7557 0.57021-0.73408-0.73419 6.9024-4.5437 12.541-6.2551 2.5403-0.771 7.7979-1.4068 11.686-1.4118zm28.301 23.705c1.125-0.1115 2.2594 0.43672 2.8269 1.4908 0.79282 1.4054 0.25132 3.1334-1.1541 3.9262-1.4054 0.75677-3.1695 0.25469-3.9261-1.1507-0.75677-1.4054-0.25132-3.1729 1.1541-3.9296 0.35139-0.18919 0.72424-0.29946 1.0992-0.33662zm140.85 10.343c-0.17587-0.0598-0.61642 0.12293-1.319 0.42249-5.347 2.2796-19.053 5.8296-28.153 7.2924-7.8523 1.2623-10.246 2.0081-10.246 3.1877 0 2.6532 3.8396 7.9723 7.2374 10.044 1.7925 1.093 3.7793 1.9903 4.4173 1.9923 0.63806 2e-3 3.5382-1.8765 6.4441-4.1735 4.9727-3.9306 5.156-3.9953 3.0915-1.0958-2.9625 4.1604-2.7673 4.7171 0.91716 2.5797 3.6569-2.121 13.558-12.678 16.292-17.371 1.1708-2.0092 1.6118-2.779 1.319-2.8785zm-51.827 27.772c2.1147 0.0995 5.322 1.5215 6.7876 3.2873 0.99384 1.1975 0.56384 1.363-2.7068 1.0511-3.519-0.33561-3.9525-0.11519-4.5651 2.3255-0.49736 1.9811-0.90222 2.3419-1.5285 1.3534-1.2714-2.006-1.057-6.4572 0.36739-7.6394 0.35807-0.29675 0.94056-0.41101 1.6454-0.37786z" fill="#0f0" stroke-width="6.6471"/></clipPath></defs><g transform="translate(1162.5,471.75)"><path d="m-1032.9-234.15c-18.8 0-26-2-26-20.4v-95.2h42.4v-44.4h-42.4v-58.4h-70.8v58.4h-32.8v44.4h32.8v112.4c0 46.4 19.6 56 69.2 56 17.2 0 36.8 0 43.2-0.8v-52z"/><path d="m-941.68-394.15h-68.4v212h71.2v-100.8c0-39.6 21.6-51.2 50.8-51.2 8.8 0 18.8 1.2 23.6 1.6v-65.6c-2.8-0.8-6.8-1.2-10.8-1.2-32.4 0-52.8 14.8-64.8 38.4h-1.6z"/><path d="m-859.68-471.75v51.6h71.2v-51.6zm0 77.6v212h71.2v-212z"/><path d="m-579.28-335.75c-7.6-42-48-63.6-100.4-63.6-50 0-98 22-98 66.8 0 47.2 37.2 60 72.4 65.2l25.2 4c22 3.6 35.2 9.6 35.2 20.4 0 14-12 22.8-32 22.8-22.8 0-37.2-10.4-40.4-30.8l-67.2 6.8c7.2 44.4 50 67.2 106.8 67.2 60 0 105.2-20.4 105.2-69.2 0-49.6-39.2-61.2-78.8-67.6l-22.4-3.6c-21.2-3.2-33.2-7.6-33.2-19.6 0-12.4 12-19.2 28-19.2 18.4 0 30.8 10 34 26.8z"/><path d="m-422.48-250.15c-2.8 12.8-12 27.2-36.8 27.2-23.6 0-39.6-19.2-40-51.2h152c5.2-83.2-40.8-125.2-112-125.2-71.6 0-112.8 42-112.8 111.6 0 69.2 42 110.8 112.8 110.8 72 0 102.8-39.6 110-69.2zm-36.8-104.8c24 0 38.4 16.8 39.2 40h-78.4c0.8-23.2 15.2-40 39.2-40z"/><path d="m-268.48-394.15h-68.4v212h71.2v-100.8c0-39.6 21.6-51.2 50.8-51.2 8.8 0 18.8 1.2 23.6 1.6v-65.6c-2.8-0.8-6.8-1.2-10.8-1.2-32.4 0-52.8 14.8-64.8 38.4h-1.6z"/><path d="m15.918-182.15c-5.2-7.2-5.6-19.2-5.6-39.6v-104.8c0-45.6-33.2-72.8-99.2-72.8-55.2 0-94.4 24.4-103.6 66.8l66 6.8c5.6-17.6 18.8-27.2 36-27.2 18.4 0 29.6 7.2 29.6 20.4 0 12-10.8 17.2-54.4 23.2-54.4 7.6-85.6 24.8-85.6 70 0 39.6 34.8 62.4 71.2 62.4 32 0 58.4-13.6 68.8-36 0 14.8 2 26.4 6 30.8zm-76.8-81.2c0 30.4-24.8 42-42 42-15.6 0-25.6-9.2-25.6-23.2 0-16 12.4-24.8 31.2-28 17.2-3.2 29.6-5.2 36.4-9.6z"/><path d="m140.32-234.15c-18.8 0-26-2-26-20.4v-95.2h42.4v-44.4h-42.4v-58.4h-70.8v58.4h-32.8v44.4h32.8v112.4c0 46.4 19.6 56 69.2 56 17.2 0 36.8 0 43.2-0.8v-52z"/><path d="m523.52-176.95c49.6 0 88.4-42 88.4-111.6 0-69.2-38.8-110.8-90.4-110.8-25.2 0-50 7.6-64.4 33.6h-1.6v-28.4h-68.4v285.6h71.2v-98.8h1.6c12.8 20 33.2 30.4 63.6 30.4zm-26.4-169.6c25.6 0 42.4 17.2 42.4 58.4 0 41.6-16.8 58.8-42.4 58.8-25.2 0-42.4-17.2-42.4-58.8 0-41.2 17.2-58.4 42.4-58.4z"/><path d="m812.72-335.75c-7.6-42-48-63.6-100.4-63.6-50 0-98 22-98 66.8 0 47.2 37.2 60 72.4 65.2l25.2 4c22 3.6 35.2 9.6 35.2 20.4 0 14-12 22.8-32 22.8-22.8 0-37.2-10.4-40.4-30.8l-67.2 6.8c7.2 44.4 50 67.2 106.8 67.2 60 0 105.2-20.4 105.2-69.2 0-49.6-39.2-61.2-78.8-67.6l-22.4-3.6c-21.2-3.2-33.2-7.6-33.2-19.6 0-12.4 12-19.2 28-19.2 18.4 0 30.8 10 34 26.8z"/><g transform="matrix(.5686 0 0 .5686 88.311 -486.83)" clip-path="url(#clipPath391)" filter="url(#filter231)"><g transform="matrix(.36036 0 0 .36036 287.24 231.84)" filter="url(#filter209)"><path class="st5" d="m324.8 828.3c-278.1 150.7-625.7 47.5-776.5-230.6-150.7-278.1-47.4-625.7 230.7-776.4 278-150.8 625.7-47.5 776.4 230.5 150.8 278.1 47.5 625.8-230.6 776.5" fill="#1e1717"/><path class="st5" d="m310 800.9c-262.9 142.5-591.6 44.9-734.1-218-142.6-263-45-591.7 217.9-734.2s591.6-44.9 734.1 218c142.6 263 45 591.6-217.9 734.2" fill="#1e1717"/><path class="st7" d="m187 574c-137.7 74.6-309.7 23.5-384.4-114.1-74.6-137.7-23.5-309.7 114.1-384.4 137.7-74.6 309.7-23.5 384.4 114.1 74.7 137.7 23.6 309.8-114.1 384.4" clip-path="none" fill="#382d2d"/><path class="st0" d="m152.2 509.8c-102.2 55.4-229.9 17.5-285.2-84.7-55.4-102.2-17.5-229.9 84.7-285.2 102.2-55.4 229.9-17.4 285.2 84.7s17.4 229.8-84.7 285.2" clip-path="none" fill="#c80000"/><path class="st5" d="m59.903 339.5c-8.1 4.4-18.2 1.4-22.6-6.7s-1.4-18.2 6.7-22.6 18.2-1.4 22.6 6.7c4.4 8 1.4 18.2-6.7 22.6" clip-path="none" fill="#1e1717"/><g fill="none"><path class="st10" d="m-13.797-47.904 2.3 13c55.1-9.8 112.1-6.7 167.4 9.7 93.5 27.8 170.6 90.3 217 176 19 35.1 32 72.4 38.7 110.6l13-2.3c-6.9-39.1-20.1-77.8-40-114.6-79.5-146.7-242.5-219.8-398.4-192.4z"/><path class="st10" d="m91.603 732.2c-52.7 5.1-105.2 0-156.2-15.1-50.9-15.1-97.7-39.5-139.1-72.6-42.8-34.2-77.9-76.1-104.2-124.7-21.2-39.2-35.7-80.7-43.3-123.9l-15.6 2.8c7.7 44 22.5 87.4 45 128.8 89.3 164.8 272.5 246.9 447.7 216.1l-2.8-15.6c-10.5 1.7-21 3.2-31.5 4.2z"/><path class="st10" d="m161.9-45.704c99 29.4 180.6 95.6 229.8 186.3 20.1 37.2 33.9 76.6 41 117l14.2-2.5c-7.3-41.5-21.3-82.5-42.4-121.5-84.3-155.4-257-232.9-422.3-203.9l2.5 14.2c58.4-10.3 118.8-7 177.2 10.4z"/><path class="st10" d="m121.6 719.9-2.5-14.2c-58.3 10.3-118.7 7.1-177.2-10.3-99-29.4-180.6-95.6-229.8-186.3-20.1-37.2-33.9-76.6-41-117l-14.2 2.5c7.3 41.5 21.3 82.5 42.4 121.5 84.2 155.3 257 232.8 422.3 203.8z"/><path class="st10" d="m-21.897-94.004 2.8 15.6c10.4-1.8 20.9-3.3 31.4-4.3 52.7-5.1 105.2 0 156.2 15.1 50.9 15.1 97.7 39.5 139.1 72.6 42.8 34.2 77.9 76.1 104.2 124.7 21.2 39.2 35.7 80.7 43.3 123.9l15.6-2.8c-7.7-44-22.5-87.4-45-128.8-89.3-164.6-272.5-246.7-447.6-216z"/><path class="st10" d="m364.7 269.6c-5.8-32.8-16.8-65.3-33.6-96.2-66.7-123.1-203.5-184.4-334.4-161.5l55.2 312.9z"/><path class="st10" d="m9.903-106.6c55.8-5.4 111.4 0 165.3 16s103.5 41.9 147.3 76.8c45.3 36.2 82.4 80.6 110.3 132 22.5 41.5 37.9 85.5 45.9 131.2l43.6-7.7c-8.7-49.4-25.3-98.2-50.5-144.7-100.3-185-306-277.2-502.9-242.7l7.7 43.6c11-1.9 22.1-3.4 33.3-4.5z"/><path class="st10" d="m-51.997 674.8c-93.5-27.8-170.6-90.3-217-176-19-35.1-32-72.4-38.7-110.6l-13 2.3c6.9 39.1 20 77.8 40 114.6 79.5 146.6 242.5 219.7 398.4 192.3l-2.3-13c-55.2 9.9-112.2 6.8-167.4-9.6z"/><path class="st10" d="m-40.797 637.1c-83.4-24.8-152.2-80.5-193.6-157-17-31.3-28.5-64.6-34.6-98.6l-10.7 1.9c6.1 34.8 17.8 69.2 35.6 102 70.7 130.4 215.7 195.4 354.5 171l-1.9-10.7c-49.2 8.8-100.1 6-149.3-8.6z"/><path class="st10" d="m107.1 637.6-55.2-312.8-312.8 55.2c5.8 32.8 16.8 65.3 33.6 96.2 66.7 123.1 203.5 184.4 334.4 161.4z"/><path class="st10" d="m134.9 795.3-7.7-43.6c-11 1.9-22.1 3.5-33.3 4.5-55.8 5.4-111.4 0-165.3-16s-103.5-41.9-147.3-76.8c-45.3-36.2-82.4-80.6-110.3-132-22.5-41.5-37.9-85.5-45.9-131.2l-43.6 7.7c8.7 49.4 25.3 98.2 50.5 144.7 100.3 185 306 277.2 502.9 242.7z"/><path class="st10" d="m150.1-5.8043c88.3 26.2 161.1 85.3 205 166.2 18 33.1 30.2 68.3 36.6 104.4l11.8-2.1c-6.5-36.9-18.9-73.4-37.7-108.1-75-138.3-228.8-207.3-375.8-181.5l2.1 11.8c51.9-9.1 105.8-6.2 158 9.3z"/><path class="st10" d="m113.9 676.4-2.1-11.8c-52.1 9.2-105.9 6.3-158.1-9.2-88.3-26.2-161.1-85.3-205-166.2-18-33.1-30.2-68.4-36.6-104.4l-11.8 2.1c6.5 36.9 18.9 73.4 37.7 108.1 75 138.2 228.8 207.2 375.9 181.4z"/><path class="st10" d="m-6.597-6.8043 1.9 10.7c49.2-8.7 100.1-5.9 149.3 8.7 83.4 24.8 152.2 80.5 193.6 157 17 31.3 28.5 64.6 34.6 98.6l10.7-1.9c-6.1-34.8-17.8-69.2-35.6-102-70.7-130.5-215.7-195.5-354.5-171.1z"/><path class="st10" d="m99.003 808.4c-62.5 6.1-124.9 0-185.4-17.9-60.5-18-116-46.9-165.1-86.1-50.8-40.6-92.4-90.4-123.7-148-25.2-46.5-42.4-95.8-51.5-147.1l-20.1 3.5c9.2 52.4 26.8 104.1 53.5 153.4 106.3 196.2 324.4 294 533 257.4l-3.5-20.1c-12.2 2-24.7 3.7-37.2 4.9z"/><path class="st10" d="m-35.997-173.9 3.5 20.1c12.3-2.2 24.8-3.9 37.3-5.1 62.5-6.1 124.9 0 185.4 17.9 60.5 18 116 46.9 165.1 86.1 50.8 40.6 92.4 90.4 123.7 148 25.2 46.5 42.4 95.8 51.5 147.1l20.1-3.5c-9.2-52.4-26.8-104.1-53.5-153.4-106.4-196-324.5-293.8-533.1-257.2z"/></g><g fill="#382d2d"><path class="st7" d="m331.1 173.4c16.7 30.9 27.8 63.4 33.6 96.2l8.1-1.4c-6-34.1-17.6-67.3-34.6-98.6-41.5-76.5-110.2-132.3-193.6-157-49.3-14.6-100.2-17.4-149.3-8.7l1.4 8.1c130.9-23 267.7 38.3 334.4 161.4z"/><path class="st7" d="m-227.3 476.2c-16.7-30.9-27.8-63.4-33.6-96.2l-8.1 1.4c6 34.1 17.6 67.3 34.6 98.6 41.5 76.5 110.2 132.3 193.6 157 49.3 14.6 100.2 17.4 149.3 8.7l-1.4-8.1c-130.9 23-267.7-38.3-334.4-161.4z"/><path class="st7" d="m347.9 164.3c17.8 32.8 29.5 67.2 35.6 102l8.1-1.4c-6.4-36.1-18.6-71.3-36.6-104.4-43.9-81-116.7-140-205-166.2-52.2-15.5-106-18.4-158.1-9.2l1.4 8.1c138.9-24.4 283.9 40.6 354.6 171.1z"/><path class="st7" d="m-244.1 485.3c-17.8-32.8-29.5-67.2-35.6-102l-8.1 1.4c6.4 36.1 18.6 71.3 36.6 104.4 43.9 81 116.7 140 205 166.2 52.2 15.5 106 18.4 158.1 9.2l-1.4-8.1c-138.9 24.4-283.9-40.6-354.6-171.1z"/><path class="st7" d="m365.7 154.7c18.8 34.7 31.3 71.2 37.7 108.1l8.1-1.4c-6.8-38.2-19.7-75.5-38.7-110.6-46.5-85.7-123.5-148.2-217-176-55.2-16.4-112.2-19.5-167.4-9.7l1.4 8.1c147.2-25.8 301 43.1 375.9 181.5z"/><path class="st7" d="m-261.9 494.9c-18.8-34.7-31.3-71.2-37.7-108.1l-8.1 1.4c6.8 38.2 19.7 75.5 38.7 110.6 46.5 85.7 123.5 148.2 217 176 55.2 16.4 112.2 19.5 167.4 9.7l-1.4-8.1c-147.2 25.8-301-43.2-375.9-181.5z"/><path class="st7" d="m-280.8 505.1c-20-36.8-33.1-75.5-40-114.6l-8.1 1.4c7.2 40.4 20.9 79.9 41 117 49.2 90.9 130.8 157 229.8 186.4 58.5 17.4 118.8 20.6 177.2 10.3l-1.4-8.1c-156 27.4-319-45.7-398.5-192.4z"/><path class="st7" d="m384.6 144.5c19.9 36.8 33.1 75.5 40 114.6l8.1-1.4c-7.2-40.4-20.9-79.9-41-117-49.2-90.9-130.8-157-229.8-186.4-58.5-17.4-118.8-20.7-177.2-10.3l1.4 8.1c156-27.4 319 45.7 398.5 192.4z"/><path class="st7" d="m404.6 133.6c21.1 39 35.1 80 42.4 121.5l8.1-1.4c-7.6-43.2-22.1-84.8-43.3-123.9-26.3-48.6-61.4-90.5-104.2-124.7-41.3-33-88.1-57.4-139.1-72.6-51-15.1-103.5-20.2-156.2-15.1-10.6 1-21 2.5-31.4 4.3l1.4 8.1c165.2-29.1 338 48.4 422.3 203.8z"/><path class="st7" d="m-300.8 516c-21.1-39-35.1-80-42.4-121.5l-8.1 1.4c7.6 43.2 22.1 84.8 43.3 123.9 26.3 48.6 61.4 90.5 104.2 124.7 41.3 33 88.1 57.4 139.1 72.6 50.9 15.1 103.5 20.2 156.2 15.1 10.6-1 21-2.5 31.4-4.3l-1.4-8.1c-165.2 29.1-338-48.4-422.3-203.8z"/><path class="st7" d="m425.7 122.2c22.4 41.4 37.2 84.8 45 128.8l8.1-1.4c-8-45.8-23.4-89.8-45.9-131.2-27.9-51.4-65-95.9-110.3-132-43.8-35-93.3-60.8-147.3-76.8-53.9-16-109.6-21.4-165.3-16-11.2 1.1-22.3 2.6-33.3 4.5l1.4 8.1c175.1-30.9 358.3 51.2 447.6 216z"/><path class="st7" d="m-321.9 527.4c-22.4-41.4-37.2-84.8-45-128.8l-8.1 1.4c8 45.8 23.4 89.8 45.9 131.2 27.9 51.4 65 95.9 110.3 132 43.8 35 93.3 60.8 147.3 76.8 53.9 16 109.6 21.4 165.3 16 11.2-1.1 22.3-2.6 33.3-4.5l-1.4-8.1c-175.1 30.9-358.3-51.2-447.6-216z"/><path class="st7" d="m471.9 97.096c25.2 46.5 41.8 95.3 50.5 144.7l8.1-1.4c-9-51.3-26.3-100.6-51.5-147.1-31.3-57.7-72.9-107.5-123.7-148-49.1-39.2-104.6-68.2-165.1-86.1-60.5-18-122.8-24-185.4-17.9-12.5 1.2-25 2.9-37.3 5.1l1.4 8.1c196.9-34.7 402.6 57.5 503 242.6z"/><path class="st7" d="m-368.1 552.4c-25.2-46.5-41.8-95.3-50.5-144.7l-8.1 1.4c9 51.3 26.3 100.6 51.5 147.1 31.3 57.7 72.9 107.5 123.7 148 49.1 39.2 104.6 68.2 165.1 86.1 60.5 18 122.8 24 185.4 17.9 12.5-1.2 25-2.9 37.3-5.1l-1.4-8.1c-196.9 34.8-402.6-57.4-503-242.6z"/><path class="st7" d="m497 83.496c26.7 49.2 44.3 101 53.5 153.4l8.1-1.4c-9.6-54.3-27.8-106.6-54.5-155.8-33.1-61-77.2-113.8-131-156.8-52-41.5-110.8-72.2-174.8-91.2s-130.1-25.4-196.3-19c-13.3 1.3-26.5 3.1-39.5 5.4l1.4 8.1c208.7-36.7 426.8 61.1 533.1 257.3z"/><path class="st7" d="m-393.2 566.1c-26.7-49.2-44.3-101-53.5-153.4l-8.1 1.4c9.6 54.3 27.8 106.6 54.5 155.8 33.1 61.1 77.2 113.8 131 156.8 52 41.5 110.8 72.2 174.8 91.2s130.1 25.4 196.3 19c13.3-1.3 26.5-3.1 39.5-5.4l-1.4-8.1c-208.7 36.7-426.8-61.1-533.1-257.3z"/></g><path class="st10" d="m258.4 705.7c51.4-27.9 95.9-65 132-110.3 35-43.8 60.8-93.3 76.8-147.3 16-53.9 21.4-109.6 16-165.3-1.1-11.2-2.6-22.3-4.5-33.3l17-3c-8.2-46.6-23.9-92.7-47.6-136.5-94.7-174.6-288.8-261.7-474.5-229.1l3 17c-45.8 8-89.8 23.4-131.2 45.9-51.4 27.9-95.9 65-132.1 110.3-35 43.8-60.8 93.3-76.8 147.3-16 53.9-21.4 109.6-16 165.3 1.1 11.2 2.6 22.3 4.5 33.3l-17 3c8.2 46.6 23.9 92.7 47.7 136.5 94.7 174.6 288.8 261.7 474.5 229.1l-3-17c45.7-8 89.7-23.4 131.2-45.9z" clip-path="none" fill="none"/><path class="st7" d="m448.1 110c23.8 43.8 39.5 89.9 47.6 136.5l8.1-1.4c-8.5-48.4-24.8-95-48.6-138.9-29.5-54.5-68.8-101.5-116.8-139.8-46.4-37-98.8-64.4-155.9-81.4s-116-22.7-175.1-16.9c-11.8 1.1-23.6 2.8-35.2 4.8l1.4 8.1c185.7-32.7 379.9 54.4 474.5 229z" clip-path="none" fill="#382d2d"/><path class="st7" d="m130.2 768.7c-185.7 32.6-379.8-54.5-474.5-229.1-23.8-43.8-39.5-89.9-47.7-136.5l-8.1 1.4c8.5 48.4 24.8 95 48.6 138.9 29.5 54.4 68.8 101.5 116.8 139.8 46.4 37 98.8 64.4 155.9 81.4s116 22.7 175.1 16.9c11.8-1.1 23.6-2.8 35.2-4.8z" fill="#382d2d"/><g transform="translate(-648.1,-375.2)"><path class="st11" d="m544.8 413.6c-76.5 41.5-132.3 110.2-157 193.6-14.6 49.3-17.4 100.2-8.7 149.3l8.1-1.4c-23-130.9 38.4-267.7 161.5-334.4 30.9-16.7 63.4-27.8 96.2-33.6l-1.4-8.1c-34.2 6.1-67.4 17.7-98.7 34.6z"/><path class="st11" d="m539.5 404c32.8-17.8 67.2-29.5 102-35.6l-1.4-8.1c-36.1 6.4-71.3 18.6-104.4 36.6-81 43.9-140 116.7-166.2 205-15.5 52.2-18.4 106-9.2 158.1l8.1-1.4c-24.4-138.9 40.6-283.9 171.1-354.6z"/><path class="st11" d="m526 379c-85.7 46.5-148.2 123.5-176 217-16.4 55.2-19.5 112.2-9.7 167.4l8.1-1.4c-25.8-147.1 43.1-300.8 181.5-375.8 34.7-18.8 71.2-31.3 108.1-37.7l-1.4-8.1c-38.2 6.7-75.5 19.6-110.6 38.6z"/><path class="st11" d="m519.7 367.3c36.8-20 75.5-33.1 114.6-40l-1.4-8.1c-40.4 7.2-79.9 20.9-117 41-90.9 49.2-157 130.8-186.4 229.8-17.4 58.5-20.7 118.8-10.3 177.2l8.1-1.4c-27.4-156 45.7-319 192.4-398.5z"/><path class="st11" d="m380.3 444.4c-33 41.3-57.4 88.1-72.6 139.1-15.1 50.9-20.2 103.5-15.1 156.2 1 10.6 2.5 21 4.3 31.4l8.1-1.4c-29-165.3 48.5-338.1 203.9-422.3 39-21.1 80-35.1 121.5-42.4l-1.4-8.1c-43.2 7.6-84.8 22.1-123.9 43.3-48.7 26.3-90.7 61.4-124.8 104.2z"/><path class="st11" d="m497.4 326.2c41.4-22.4 84.8-37.2 128.8-45l-1.4-8.1c-45.8 8-89.8 23.4-131.2 45.9-51.4 27.9-95.9 65-132.1 110.3-35 43.8-60.8 93.3-76.8 147.3-16 53.9-21.4 109.6-16 165.3 1.1 11.2 2.6 22.3 4.5 33.3l8.1-1.4c-30.8-175.1 51.3-358.3 216.1-447.6z"/><path class="st11" d="m320.4 396.6c-39.2 49.1-68.2 104.6-86.1 165.1-18 60.5-24 122.8-17.9 185.4 1.2 12.5 2.9 25 5.1 37.3l8.1-1.4c-34.6-196.9 57.6-402.6 242.8-503 46.5-25.2 95.3-41.8 144.7-50.5l-1.4-8.1c-51.3 9-100.6 26.3-147.1 51.5-57.8 31.3-107.6 72.9-148.2 123.7z"/><path class="st11" d="m458.7 254.9c49.2-26.7 101-44.3 153.4-53.5l-1.4-8.1c-54.3 9.6-106.6 27.8-155.8 54.5-61 33.1-113.8 77.2-156.8 131-41.5 52-72.2 110.8-91.2 174.8s-25.4 130.1-19 196.3c1.3 13.3 3.1 26.5 5.4 39.5l8.1-1.4c-36.7-208.7 61.1-426.8 257.3-533.1z"/><path class="st11" d="m485.2 303.8c43.8-23.8 89.9-39.5 136.5-47.7l-1.4-8.1c-48.4 8.5-95 24.8-138.9 48.6-54.4 29.5-101.5 68.8-139.8 116.8-37 46.4-64.4 98.8-81.4 155.9s-22.7 116-16.9 175.1c1.1 11.8 2.8 23.6 4.8 35.2l8.1-1.4c-32.7-185.6 54.4-379.8 229-474.4z"/><path class="st11" d="m914.8 1096.2c-43.8 23.8-89.9 39.5-136.5 47.7l1.4 8.1c48.4-8.5 95-24.8 138.9-48.6 54.4-29.5 101.5-68.8 139.8-116.8 37-46.4 64.4-98.8 81.4-155.9s22.7-116 16.9-175.1c-1.1-11.8-2.8-23.6-4.8-35.2l-8.1 1.4c32.7 185.6-54.4 379.8-229 474.4z"/><path class="st11" d="m851.4 979.2c-30.9 16.7-63.4 27.8-96.2 33.6l1.4 8.1c34.1-6 67.3-17.6 98.6-34.6 76.5-41.5 132.3-110.2 157-193.6 14.6-49.3 17.4-100.2 8.7-149.3l-8.1 1.4c23 130.9-38.3 267.7-161.4 334.4z"/><path class="st11" d="m864.3 1003.2c81-43.9 140-116.7 166.2-205 15.5-52.2 18.4-106 9.2-158.1l-8.1 1.4c24.4 138.8-40.6 283.8-171.1 354.5-32.8 17.8-67.2 29.5-102 35.6l1.4 8.1c36.1-6.3 71.3-18.6 104.4-36.5z"/><path class="st11" d="m870.1 1013.8c-34.7 18.8-71.2 31.3-108.1 37.7l1.4 8.1c38.2-6.8 75.5-19.7 110.6-38.7 85.7-46.5 148.2-123.5 176-217 16.4-55.2 19.5-112.2 9.7-167.4l-8.1 1.4c25.8 147.2-43.1 300.9-181.5 375.9z"/><path class="st11" d="m884.2 1039.8c90.8-49.2 156.9-130.8 186.3-229.8 17.4-58.5 20.6-118.8 10.3-177.2l-8.1 1.4c27.4 155.9-45.7 318.9-192.4 398.4-36.8 20-75.5 33.1-114.6 40l1.4 8.1c40.5-7 79.9-20.8 117.1-40.9z"/><path class="st11" d="m891.2 1052.7c-39 21.1-80 35.1-121.5 42.4l1.4 8.1c43.2-7.6 84.8-22.1 123.9-43.3 48.6-26.3 90.5-61.4 124.7-104.2 33-41.3 57.4-88.1 72.6-139.1 15.1-50.9 20.2-103.5 15.1-156.1-1-10.6-2.5-21-4.3-31.4l-8.1 1.4c29.1 165.1-48.4 337.9-203.8 422.2z"/><path class="st11" d="m1038.5 970.6c35-43.8 60.8-93.3 76.8-147.3 16-53.9 21.4-109.6 16-165.3-1.1-11.2-2.6-22.3-4.5-33.3l-8.1 1.4c30.7 175.2-51.4 358.3-216.1 447.7-41.4 22.4-84.8 37.2-128.8 45l1.4 8.1c45.8-8 89.8-23.4 131.2-45.9 51.5-27.9 95.9-65.1 132.1-110.4z"/><path class="st11" d="m927.6 1120c-46.5 25.2-95.3 41.8-144.7 50.5l1.4 8.1c51.3-9 100.6-26.3 147.1-51.5 57.7-31.3 107.5-72.9 148-123.7 39.2-49.1 68.2-104.6 86.1-165.1 18-60.5 24-122.8 17.9-185.4-1.2-12.5-2.9-25-5.1-37.3l-8.1 1.4c34.8 196.9-57.4 402.6-242.6 503z"/><path class="st11" d="m1101.9 1021.3c41.5-52 72.2-110.8 91.2-174.8s25.4-130.1 19-196.3c-1.3-13.3-3.1-26.5-5.4-39.5l-8.1 1.4c36.6 208.6-61.2 426.7-257.4 533-49.2 26.7-101 44.3-153.4 53.5l1.4 8.1c54.3-9.6 106.6-27.8 155.8-54.5 61.2-33.1 113.9-77.1 156.9-130.9z"/></g></g></g><text font-family="sans-serif" font-size="40px" text-align="center" style="line-height:1.25;shape-inside:url(#rect336);white-space:pre" xml:space="preserve"/><g transform="translate(259.89 1.1308)" style="inline-size:1982.69;white-space:pre" aria-label="The robust, in-depth   Serato Parser &amp; Serializer"><path d="m-1122.7-152.44v99.149h6.4535v-99.149h36.961v-5.5735h-80.228v5.5735z"/><path d="m-1073.1-158.01v104.72h5.5735v-40.774c0-18.48 10.267-31.534 27.134-31.534 20.534 0 21.414 16.867 21.414 24.641v47.668h5.5735v-46.641c0-9.2402-0.2933-30.507-26.841-30.507-11.734 0-23.174 6.6002-26.987 17.894h-0.2933v-45.468z"/><path d="m-933.95-90.253c1.0267-21.56-9.5336-40.188-33.147-40.188-22.734 0-33.587 20.094-33.294 40.774-0.2934 20.827 11.294 38.134 33.294 38.134 17.894 0 29.627-9.6802 32.561-27.281h-5.5735c-2.6401 13.934-12.76 22.441-26.987 22.441-18.627 0-28.014-16.134-27.721-33.881zm-60.868-4.8401c1.1734-14.96 11-30.507 27.721-30.507 17.307 0 27.281 14.667 27.574 30.507z"/><path d="m-874.55-128.68h-5.5735v75.388h5.5735v-41.214c0.58668-11.294 2.9334-15.987 8.5069-21.707 6.7468-6.6002 14.96-8.0668 20.827-7.3335v-5.5735c-13.64-0.58668-25.961 7.3335-28.894 17.16h-0.44001z"/><path d="m-842.87-90.986c0 21.414 12.467 39.454 34.614 39.454s34.614-18.04 34.614-39.454-12.467-39.454-34.614-39.454-34.614 18.04-34.614 39.454zm5.5735 0c0-18.04 10.12-34.614 29.041-34.614s29.041 16.574 29.041 34.614-10.12 34.614-29.041 34.614-29.041-16.574-29.041-34.614z"/><path d="m-724.8-56.372c-20.534 0-28.747-17.894-28.747-36.374 0-18.92 9.0935-32.854 28.747-32.854 18.04 0 27.134 16.134 27.134 32.854 0 17.307-7.3335 36.374-27.134 36.374zm-34.467 3.0801h5.5735v-16.867h0.29334c1.1734 3.9601 8.8002 18.627 28.601 18.627 10.414 0 32.707-5.2801 32.707-41.214 0-20.974-10.56-37.694-32.707-37.694-12.174 0-24.347 6.0135-28.601 17.747h-0.29334v-45.321h-5.5735z"/><path d="m-619.35-128.68h-5.5735v40.774c0 18.48-10.267 31.534-27.134 31.534-20.534 0-21.414-16.867-21.414-24.641v-47.668h-5.5735v46.641c0 9.2402 0.29334 30.507 26.841 30.507 11.734 0 23.174-6.6002 26.987-17.894h0.29334v16.134h5.5735z"/><path d="m-605.85-78.372c0.44001 17.6 13.347 26.841 30.507 26.841 13.2 0 29.481-4.5468 29.481-20.827 0-15.84-11.734-19.36-26.694-22.147-12.174-2.6401-25.081-4.5468-25.081-16.574 0-10.707 11.44-14.52 21.707-14.52 12.614 0 22.147 5.5735 22.294 19.214h5.5735c0-17.16-11.88-24.054-27.867-24.054-12.76 0-27.281 4.4001-27.281 19.36 0 15.4 12.907 18.774 25.961 21.414 12.907 2.6401 25.814 4.5468 25.814 17.307 0 13.054-14.08 15.987-23.907 15.987-13.64 0-24.054-8.0668-24.934-22z"/><path d="m-504.65-128.68h-16.427v-23.467h-5.5735v23.467h-13.934v4.8401h13.934v52.655c-0.58668 17.014 10.414 18.627 21.854 17.894v-4.8401c-10.56 0.29334-16.28-0.88002-16.28-13.054v-52.655h16.427z"/><path d="m-487.93-34.811c7.1868-2.6401 9.3869-10.707 9.3869-18.48v-15.107h-7.4802v15.107h3.0801c0 3.9601-0.73335 11.734-4.9868 13.64z"/><path d="m-405.94-53.292v-75.388h-5.5735v75.388zm0-89.615v-15.107h-5.5735v15.107z"/><path d="m-388.2-53.292h5.5735v-40.774c0-18.48 10.267-31.534 27.134-31.534 20.534 0 21.414 16.867 21.414 24.641v47.668h5.5735v-46.641c0-9.2402-0.29334-30.507-26.841-30.507-11.734 0-23.174 6.6002-26.987 17.894h-0.29334v-16.134h-5.5735z"/><path d="m-278.78-90.399v-5.5735h-31.387v5.5735z"/><path d="m-230.23-56.372c-19.36 0-28.161-16.72-28.161-34.467 0-18.187 8.0668-34.761 28.014-34.761 19.36 0 28.014 17.16 28.014 34.761 0 17.307-8.8002 34.467-27.867 34.467zm28.014 3.0801h5.5735v-104.72h-5.5735v46.201h-0.29334c-3.9601-11.88-15.547-18.627-27.867-18.627-22.734 0-33.587 17.307-33.587 39.601 0 20.827 9.8269 39.308 32.561 39.308 13.494 0 22.734-6.0135 28.894-17.894h0.29334z"/><path d="m-115.83-90.253c1.0267-21.56-9.5336-40.188-33.147-40.188-22.734 0-33.587 20.094-33.294 40.774-0.29334 20.827 11.294 38.134 33.294 38.134 17.894 0 29.627-9.6802 32.561-27.281h-5.5735c-2.6401 13.934-12.76 22.441-26.987 22.441-18.627 0-28.014-16.134-27.721-33.881zm-60.868-4.8401c1.1734-14.96 11-30.507 27.721-30.507 17.307 0 27.281 14.667 27.574 30.507z"/><path d="m-68.162-56.372c-21.267 0-27.574-16.574-27.574-34.467 0-17.894 7.4802-34.761 27.574-34.761 20.24 0 28.307 17.6 28.307 34.761 0 18.627-8.6535 34.467-28.307 34.467zm-27.721-72.308h-5.5735v102.38h5.5735v-42.681h0.29334c4.4001 12.174 14.96 17.454 27.427 17.454 23.027 0 33.881-16.427 33.881-39.308 0-21.267-10.707-39.601-33.881-39.601-16.574 0-25.081 11.587-27.427 19.067h-0.29334z"/><path d="m6.4929-128.68h-16.427v-23.467h-5.5735v23.467h-13.934v4.8401h13.934v52.655c-0.58668 17.014 10.414 18.627 21.854 17.894v-4.8401c-10.56 0.29334-16.28-0.88002-16.28-13.054v-52.655h16.427z"/><path d="m16.76-158.01v104.72h5.5735v-40.774c0-18.48 10.267-31.534 27.134-31.534 20.534 0 21.414 16.867 21.414 24.641v47.668h5.5735v-46.641c0-9.2402-0.29334-30.507-26.841-30.507-11.734 0-23.174 6.6002-26.987 17.894h-0.29334v-45.468z"/><path d="m-991.89-3.424c-1.0267-23.027-18.187-32.414-40.041-32.414-16.574 0-35.201 7.7735-35.201 27.867 0 19.947 17.894 24.201 35.641 27.867 17.894 3.6668 35.787 6.7468 35.787 24.494 0 18.187-17.747 23.907-30.361 23.907-20.68 0-39.014-8.6535-37.694-31.534h-6.4535c-0.2933 26.987 19.654 37.108 44.148 37.108 15.987 0 36.814-7.7735 36.814-29.481 0-20.827-17.894-25.374-35.787-29.041-17.747-3.6668-35.641-6.4535-35.641-23.321 0-17.307 16.867-22.294 28.747-22.294 19.36 0 32.854 8.9469 33.587 26.841z"/><path d="m-912.25 34.417c1.0267-21.56-9.5336-40.188-33.147-40.188-22.734 0-33.587 20.094-33.294 40.774-0.29334 20.827 11.294 38.134 33.294 38.134 17.894 0 29.627-9.6802 32.561-27.281h-5.5735c-2.6401 13.934-12.76 22.441-26.987 22.441-18.627 0-28.014-16.134-27.721-33.881zm-60.868-4.8401c1.1734-14.96 11-30.507 27.721-30.507 17.307 0 27.281 14.667 27.574 30.507z"/><path d="m-893.62-4.0107h-5.5735v75.388h5.5735v-41.214c0.58668-11.294 2.9334-15.987 8.5069-21.707 6.7468-6.6001 14.96-8.0668 20.827-7.3335v-5.5735c-13.64-0.58668-25.961 7.3335-28.894 17.16h-0.44001z"/><path d="m-808.4 42.63c0 3.9601-2.7867 25.667-28.161 25.667-13.2 0-19.8-7.3335-19.8-16.427 0-11.294 7.4802-15.987 20.68-17.454 10.854-1.4667 22.881-0.88002 27.281-5.8668zm5.5735-28.747c0-15.547-13.2-19.654-26.401-19.654-17.747 0-28.014 8.3602-28.747 24.934h5.5735c0.73335-13.054 9.6802-20.094 23.174-20.094 17.16 0 20.974 11.44 20.974 14.814 0 12.32-1.0267 13.934-25.961 15.694-12.467 1.0267-27.721 4.6934-27.721 22.294 0 15.84 11 21.267 25.227 21.267 14.374 0 24.494-7.7735 28.014-16.72h0.29334v3.9601c0 6.1601 1.32 11 10.12 11 1.4667 0 2.9334-0.29334 4.5468-0.58668v-4.6934c-1.76 0.29334-3.0801 0.44001-4.1068 0.44001-4.9868 0-4.9868-4.6934-4.9868-9.0935z"/><path d="m-757.36-4.0107h-16.427v-23.467h-5.5735v23.467h-13.934v4.8401h13.934v52.655c-0.58668 17.014 10.414 18.627 21.854 17.894v-4.8401c-10.56 0.29334-16.28-0.88002-16.28-13.054v-52.655h16.427z"/><path d="m-750.62 33.684c0 21.414 12.467 39.454 34.614 39.454s34.614-18.04 34.614-39.454-12.467-39.454-34.614-39.454-34.614 18.04-34.614 39.454zm5.5735 0c0-18.04 10.12-34.614 29.041-34.614s29.041 16.574 29.041 34.614-10.12 34.614-29.041 34.614-29.041-16.574-29.041-34.614z"/><path d="m-620.08-27.771h37.694c20.974 0 24.494 15.84 24.494 23.614 0 10.854-6.4535 23.321-25.374 23.321h-36.814zm-6.4535 99.149h6.4535v-46.641h35.787c20.827 0 32.854-10.414 32.854-28.747 0-25.081-18.627-29.334-30.507-29.334h-44.588z"/><path d="m-490.86 42.63c0 3.9601-2.7867 25.667-28.161 25.667-13.2 0-19.8-7.3335-19.8-16.427 0-11.294 7.4802-15.987 20.68-17.454 10.854-1.4667 22.881-0.88002 27.281-5.8668zm5.5735-28.747c0-15.547-13.2-19.654-26.401-19.654-17.747 0-28.014 8.3602-28.747 24.934h5.5735c0.73335-13.054 9.6802-20.094 23.174-20.094 17.16 0 20.974 11.44 20.974 14.814 0 12.32-1.0267 13.934-25.961 15.694-12.467 1.0267-27.721 4.6934-27.721 22.294 0 15.84 11 21.267 25.227 21.267 14.374 0 24.494-7.7735 28.014-16.72h0.29334v3.9601c0 6.1601 1.32 11 10.12 11 1.4667 0 2.9334-0.29334 4.5468-0.58668v-4.6934c-1.76 0.29334-3.0801 0.44001-4.1068 0.44001-4.9868 0-4.9868-4.6934-4.9868-9.0935z"/><path d="m-461.97-4.0107h-5.5735v75.388h5.5735v-41.214c0.58668-11.294 2.9334-15.987 8.5069-21.707 6.7468-6.6001 14.96-8.0668 20.827-7.3335v-5.5735c-13.64-0.58668-25.961 7.3335-28.894 17.16h-0.44001z"/><path d="m-429.7 46.297c0.44001 17.6 13.347 26.841 30.507 26.841 13.2 0 29.481-4.5468 29.481-20.827 0-15.84-11.734-19.36-26.694-22.147-12.174-2.6401-25.081-4.5468-25.081-16.574 0-10.707 11.44-14.52 21.707-14.52 12.614 0 22.147 5.5735 22.294 19.214h5.5735c0-17.16-11.88-24.054-27.867-24.054-12.76 0-27.281 4.4001-27.281 19.36 0 15.4 12.907 18.774 25.961 21.414 12.907 2.6401 25.814 4.5468 25.814 17.307 0 13.054-14.08 15.987-23.907 15.987-13.64 0-24.054-8.0668-24.934-22z"/><path d="m-293.15 34.417c1.0267-21.56-9.5336-40.188-33.147-40.188-22.734 0-33.587 20.094-33.294 40.774-0.29334 20.827 11.294 38.134 33.294 38.134 17.894 0 29.627-9.6802 32.561-27.281h-5.5735c-2.6401 13.934-12.76 22.441-26.987 22.441-18.627 0-28.014-16.134-27.721-33.881zm-60.868-4.8401c1.1734-14.96 11-30.507 27.721-30.507 17.307 0 27.281 14.667 27.574 30.507z"/><path d="m-274.53-4.0107h-5.5735v75.388h5.5735v-41.214c0.58668-11.294 2.9334-15.987 8.5069-21.707 6.7468-6.6001 14.96-8.0668 20.827-7.3335v-5.5735c-13.64-0.58668-25.961 7.3335-28.894 17.16h-0.44001z"/><path d="m-168.34 10.95c-4.6934-7.0402-13.494-14.374-13.494-24.494 0-7.9202 8.3602-13.2 16.427-13.2s16.427 5.2801 16.427 13.2c0 12.027-10.854 18.92-19.36 24.494zm25.081 40.334c0.14667 0.88002-8.5069 17.014-26.107 17.014-12.76 0-25.521-8.0668-25.521-21.854 0-14.814 13.787-21.707 24.641-28.747zm16.427 20.094h7.4802l-17.014-20.974c2.9334-6.7468 4.8401-14.52 5.2801-22.147h-5.5735c0 6.0135-1.4667 12.027-3.5201 17.454l-24.934-30.654c10.267-7.4802 21.707-13.64 21.707-28.601 0-11.734-10.56-18.04-22-18.04-10.854 0-22 7.1868-22 18.04 0 11 7.7735 19.067 14.227 27.134-12.027 7.6268-27.281 15.694-27.281 32.854 0 17.747 13.64 26.694 31.094 26.694 12.614 0 23.321-6.6002 29.774-17.307z"/><path d="m5.026-3.424c-1.0267-23.027-18.187-32.414-40.041-32.414-16.574 0-35.201 7.7735-35.201 27.867 0 19.947 17.894 24.201 35.641 27.867 17.894 3.6668 35.787 6.7468 35.787 24.494 0 18.187-17.747 23.907-30.361 23.907-20.68 0-39.014-8.6535-37.694-31.534h-6.4535c-0.29334 26.987 19.654 37.108 44.148 37.108 15.987 0 36.814-7.7735 36.814-29.481 0-20.827-17.894-25.374-35.787-29.041-17.747-3.6668-35.641-6.4535-35.641-23.321 0-17.307 16.867-22.294 28.747-22.294 19.36 0 32.854 8.9469 33.587 26.841z"/><path d="m84.668 34.417c1.0267-21.56-9.5336-40.188-33.147-40.188-22.734 0-33.587 20.094-33.294 40.774-0.29334 20.827 11.294 38.134 33.294 38.134 17.894 0 29.627-9.6802 32.561-27.281h-5.5735c-2.6401 13.934-12.76 22.441-26.987 22.441-18.627 0-28.014-16.134-27.721-33.881zm-60.868-4.8401c1.1734-14.96 11-30.507 27.721-30.507 17.307 0 27.281 14.667 27.574 30.507z"/><path d="m103.29-4.0107h-5.5735v75.388h5.5735v-41.214c0.58668-11.294 2.9334-15.987 8.5069-21.707 6.7468-6.6001 14.96-8.0668 20.827-7.3335v-5.5735c-13.64-0.58668-25.961 7.3335-28.894 17.16h-0.44001z"/><path d="m145.39 71.378v-75.388h-5.5735v75.388zm0-89.615v-15.107h-5.5735v15.107z"/><path d="m213.15 42.63c0 3.9601-2.7867 25.667-28.161 25.667-13.2 0-19.8-7.3335-19.8-16.427 0-11.294 7.4802-15.987 20.68-17.454 10.854-1.4667 22.881-0.88002 27.281-5.8668zm5.5735-28.747c0-15.547-13.2-19.654-26.401-19.654-17.747 0-28.014 8.3602-28.747 24.934h5.5735c0.73335-13.054 9.6802-20.094 23.174-20.094 17.16 0 20.974 11.44 20.974 14.814 0 12.32-1.0267 13.934-25.961 15.694-12.467 1.0267-27.721 4.6934-27.721 22.294 0 15.84 11 21.267 25.227 21.267 14.374 0 24.494-7.7735 28.014-16.72h0.29334v3.9601c0 6.1601 1.32 11 10.12 11 1.4667 0 2.9334-0.29334 4.5468-0.58668v-4.6934c-1.76 0.29334-3.0801 0.44001-4.1068 0.44001-4.9868 0-4.9868-4.6934-4.9868-9.0935z"/><path d="m237.79-33.345v104.72h5.5735v-104.72z"/><path d="m268 71.378v-75.388h-5.5735v75.388zm0-89.615v-15.107h-5.5735v15.107z"/><path d="m285.6 66.538 50.748-65.268v-5.2801h-53.535v4.8401h46.641l-50.601 65.268v5.2801h59.841v-4.8401z"/><path d="m411.3 34.417c1.0267-21.56-9.5336-40.188-33.147-40.188-22.734 0-33.587 20.094-33.294 40.774-0.29334 20.827 11.294 38.134 33.294 38.134 17.894 0 29.627-9.6802 32.561-27.281h-5.5735c-2.6401 13.934-12.76 22.441-26.987 22.441-18.627 0-28.014-16.134-27.721-33.881zm-60.868-4.8401c1.1734-14.96 11-30.507 27.721-30.507 17.307 0 27.281 14.667 27.574 30.507z"/><path d="m429.93-4.0107h-5.5735v75.388h5.5735v-41.214c0.58668-11.294 2.9334-15.987 8.5069-21.707 6.7468-6.6001 14.96-8.0668 20.827-7.3335v-5.5735c-13.64-0.58668-25.961 7.3335-28.894 17.16h-0.44001z"/></g></g></svg>
